<svg width="62" height="62" viewBox="0 0 62 62" fill="none" xmlns="http://www.w3.org/2000/svg">
<path d="M27.4789 29.2089C27.2035 29.2778 26.8591 29.3467 26.5836 29.3467C25.4128 29.3467 24.2421 29.3467 23.1401 29.3467H21.8316C21.4184 29.3467 21.0052 29.3467 20.592 29.3467C19.5589 29.3467 18.457 29.3467 17.424 29.3467C17.0796 29.3467 16.5287 29.3467 16.1154 29.2778C15.7711 29.2089 15.3579 29.0711 15.0135 28.9333C14.1871 28.6578 13.6361 28.3133 13.0852 27.9689C12.8097 27.7622 12.5342 27.4867 12.1899 27.2111C11.2946 26.3156 10.3304 25.3511 9.4351 24.3867L6.19823 21.08C4.82084 19.7022 8.33319 23.1467 6.9558 21.7689C4.88971 19.6333 2.82362 17.5667 0.757537 15.4311C0.413189 15.0867 0.20658 14.6733 0.137711 14.26C-2.86326e-05 13.3644 0.20658 12.7444 0.826406 12.1244C1.44623 11.5733 2.06606 10.9533 2.61701 10.3333L3.30571 9.71333C3.7878 9.23111 4.26988 8.74889 4.75197 8.26667C5.23406 7.78444 5.64728 7.37111 6.12936 6.88889C7.30015 5.71778 8.47093 4.61556 9.64171 3.44444L11.0191 1.86C11.4323 1.44667 11.8455 1.03333 12.2588 0.688889C12.6031 0.344444 12.9474 0.206667 13.3607 0.0688889C13.6361 0 13.9116 0 14.1871 0C14.6692 0.0688889 15.1513 0.344444 15.6334 0.826667L15.7022 0.895555C16.4598 1.65333 17.2174 2.48 17.9749 3.23778L18.8702 4.20222L21.2118 6.68222C22.9335 8.40444 24.5864 10.1267 26.3081 11.8489L26.5148 12.0556C26.7902 12.3311 27.1346 12.6756 27.4101 12.9511C27.8233 13.4333 28.1676 13.9844 28.4431 14.6733C28.6497 15.0867 28.7875 15.5689 28.9252 15.9822C29.0629 16.3956 29.1318 16.8778 29.1318 17.2911C29.1318 21.08 29.0629 24.18 29.0629 27.0733C29.0629 28.0378 28.3742 28.9333 27.4789 29.2089Z" fill="#98DAFF"/>
<path d="M24.9308 27.6246C26.4142 27.6246 27.6167 26.4217 27.6167 24.9379C27.6167 23.4541 26.4142 22.2512 24.9308 22.2512C23.4474 22.2512 22.2449 23.4541 22.2449 24.9379C22.2449 26.4217 23.4474 27.6246 24.9308 27.6246Z" fill="white"/>
<path d="M32.7129 34.4445C32.6441 34.72 32.5752 35.0645 32.5752 35.34C32.5752 36.5111 32.5752 37.6823 32.5752 38.7845V40.0934C32.5752 40.5067 32.5752 40.92 32.5752 41.3334C32.5752 42.3667 32.5752 43.4689 32.5752 44.5023C32.5752 44.8467 32.5752 45.3978 32.6441 45.8111C32.7129 46.1556 32.8507 46.5689 32.9884 46.9134C33.2639 47.74 33.6082 48.2911 33.9526 48.8423C34.1592 49.1178 34.4347 49.3934 34.7102 49.7378C35.6055 50.6334 36.5696 51.5978 37.5338 52.4934L40.8395 55.7311C42.2169 57.1089 38.7735 53.5956 40.1508 54.9734C42.2858 57.04 44.3519 59.1067 46.4868 61.1734C46.8312 61.5178 47.2444 61.7245 47.6576 61.7934C48.5529 61.9311 49.1728 61.7245 49.7926 61.1045C50.3435 60.4845 50.9634 59.8645 51.5832 59.3134L52.203 58.6245C52.6851 58.1423 53.1672 57.66 53.6493 57.1778C54.1314 56.6956 54.5446 56.2823 55.0267 55.8C56.1975 54.6289 57.2994 53.4578 58.4702 52.2867L59.9853 50.7711C60.3985 50.3578 60.8117 49.9445 61.1561 49.5311C61.5004 49.1867 61.6382 48.8423 61.7759 48.4289C61.8448 48.1534 61.8448 47.8778 61.7759 47.5334C61.707 47.0511 61.4315 46.5689 60.9495 46.0867L60.8806 46.0178C60.123 45.26 59.2966 44.5023 58.539 43.7445L57.5748 42.8489L55.0955 40.5067C53.3738 38.7845 51.6521 37.1311 49.9303 35.4089L49.7237 35.2023C49.4482 34.9267 49.1039 34.5823 48.8284 34.3067C48.3463 33.8934 47.7954 33.5489 47.1067 33.2734C46.6935 33.0667 46.2114 32.9289 45.7982 32.7911C45.3849 32.6534 44.9028 32.5845 44.4896 32.5845C40.7018 32.5845 37.6027 32.6534 34.7102 32.6534C33.8837 32.86 32.9884 33.5489 32.7129 34.4445Z" fill="#0073B4"/>
<path d="M36.9828 39.68C38.4662 39.68 39.6687 38.4771 39.6687 36.9933C39.6687 35.5095 38.4662 34.3066 36.9828 34.3066C35.4994 34.3066 34.2969 35.5095 34.2969 36.9933C34.2969 38.4771 35.4994 39.68 36.9828 39.68Z" fill="white"/>
<path d="M32.7129 27.5555C32.6441 27.2799 32.5752 26.9355 32.5752 26.6599C32.5752 25.4888 32.5752 24.3177 32.5752 23.2155V21.9066C32.5752 21.4933 32.5752 21.0799 32.5752 20.6666C32.5752 19.6333 32.5752 18.5311 32.5752 17.4977C32.5752 17.1533 32.5752 16.6022 32.6441 16.1888C32.7129 15.8444 32.8507 15.4311 32.9884 15.0866C33.2639 14.2599 33.6082 13.7088 33.9526 13.1577C34.1592 12.8822 34.4347 12.6066 34.7102 12.2622C35.6055 11.3666 36.5696 10.4022 37.5338 9.50661L40.9773 6.19994C42.3547 4.82217 38.9112 8.3355 40.2886 6.95772C42.4235 4.89106 44.4896 2.82439 46.6246 0.757722C46.9689 0.413278 47.3822 0.206611 47.7954 0.137722C48.6907 -5.58347e-05 49.3105 0.206611 49.9303 0.826611C50.4813 1.37772 51.1011 1.99772 51.6521 2.54883L52.2719 3.23772C52.754 3.71994 53.2361 4.20217 53.7182 4.68439C54.2002 5.16661 54.6135 5.57994 55.0955 6.06217C56.2663 7.23328 57.3682 8.40439 58.539 9.5755L60.0542 11.0911C60.4674 11.5044 60.8806 11.9177 61.2249 12.3311C61.5693 12.6755 61.707 13.0199 61.8448 13.4333C61.9136 13.7088 61.9136 13.9844 61.8448 14.3288C61.7759 14.8111 61.5004 15.2933 61.0183 15.7755L60.9495 15.8444C60.1919 16.6022 59.3655 17.3599 58.6079 18.1177L57.6437 19.0133L55.1644 21.3555C53.4427 23.0777 51.7209 24.7311 49.9992 26.4533L49.7926 26.6599C49.5171 26.9355 49.1728 27.2799 48.8973 27.5555C48.4152 27.9688 47.8642 28.3133 47.1755 28.5888C46.7623 28.7955 46.2802 28.9333 45.867 29.0711C45.4538 29.2088 44.9717 29.2777 44.5585 29.2777C40.7707 29.2777 37.6715 29.2088 34.779 29.2088C33.8837 29.0711 32.9884 28.4511 32.7129 27.5555Z" fill="#F8931D"/>
<path d="M36.9828 27.6243C38.4662 27.6243 39.6687 26.4214 39.6687 24.9376C39.6687 23.4538 38.4662 22.251 36.9828 22.251C35.4994 22.251 34.2969 23.4538 34.2969 24.9376C34.2969 26.4214 35.4994 27.6243 36.9828 27.6243Z" fill="white"/>
<path d="M27.4789 32.7223C27.2034 32.6534 26.8591 32.5845 26.5836 32.5845C25.4128 32.5845 24.2421 32.5845 23.1401 32.5845H21.8316C21.4184 32.5845 21.0052 32.5845 20.592 32.5845C19.5589 32.5845 18.457 32.5845 17.424 32.5845C17.0796 32.5845 16.5287 32.5845 16.1154 32.6534C15.7711 32.7223 15.3579 32.86 15.0135 32.9978C14.1871 33.2734 13.6361 33.6178 13.0852 33.9623C12.8097 34.1689 12.5342 34.4445 12.1899 34.72C11.2946 35.6156 10.3304 36.58 9.4351 37.5445L6.19823 40.8511C4.82084 42.2289 8.33319 38.7845 6.9558 40.1623C4.88971 42.2978 2.82362 44.3645 0.757537 46.5C0.413189 46.9134 0.20658 47.2578 0.137711 47.6711C-2.86251e-05 48.5667 0.20658 49.1867 0.826406 49.8067C1.44623 50.3578 2.06606 50.9778 2.61701 51.5978L3.30571 52.2178C3.7878 52.7 4.26988 53.1823 4.75197 53.6645C5.23406 54.1467 5.64728 54.56 6.12936 55.0423C7.30014 56.2134 8.47093 57.3156 9.64171 58.4867L11.1568 60.0022C11.5701 60.4156 11.9833 60.8289 12.3965 61.1734C12.7408 61.5178 13.0852 61.6556 13.4984 61.7934C13.7739 61.8622 14.0494 61.8622 14.3937 61.7934C14.8758 61.7245 15.3579 61.4489 15.84 60.9667L15.9088 60.8978C16.6664 60.14 17.424 59.3134 18.1815 58.5556L19.0768 57.5911L21.4184 55.1111C23.1401 53.3889 24.793 51.6667 26.5148 49.9445L26.7214 49.7378C26.9968 49.4622 27.3412 49.1178 27.6167 48.8423C28.0299 48.36 28.3742 47.8089 28.6497 47.12C28.8563 46.7067 28.9941 46.2245 29.1318 45.8111C29.2695 45.3978 29.3384 44.9156 29.3384 44.5022C29.3384 40.7134 29.2695 37.6134 29.2695 34.72C29.0629 33.8934 28.3742 33.0667 27.4789 32.7223Z" fill="#C5161D"/>
<path d="M24.9308 39.68C26.4142 39.68 27.6167 38.4771 27.6167 36.9933C27.6167 35.5095 26.4142 34.3066 24.9308 34.3066C23.4474 34.3066 22.2449 35.5095 22.2449 36.9933C22.2449 38.4771 23.4474 39.68 24.9308 39.68Z" fill="white"/>
<path d="M31.4044 31.2068L30.3713 30.3112C30.5779 30.1046 30.5779 29.6912 30.6468 29.2779C30.7157 28.8646 30.7157 28.3135 30.9912 27.9001C31.1978 27.4179 31.5421 27.0046 31.9553 26.5912C33.4016 25.2824 35.3299 24.8001 36.363 24.6624L36.5696 26.0401C35.0545 26.1779 33.7459 26.729 32.8506 27.5557C32.5752 27.8312 32.2997 28.1068 32.1619 28.4512C32.0242 28.6579 32.0242 29.0024 31.9553 29.3468C31.9553 29.9668 31.8865 30.5868 31.4044 31.2068Z" fill="#3D3D3D"/>
<path d="M30.0273 31.2066C29.5452 30.6555 29.4763 29.9666 29.4075 29.3466C29.4075 29.0021 29.3386 28.6577 29.2009 28.451C29.0631 28.1755 28.7876 27.831 28.5122 27.5555C27.6169 26.7977 26.3083 26.1777 24.7932 25.971L24.9998 24.5933C26.0329 24.731 27.9612 25.2133 29.4075 26.5221C29.8207 26.9355 30.165 27.3488 30.3716 27.831C30.5783 28.3133 30.6471 28.7955 30.716 29.2088C30.7849 29.6222 31.1292 31.1377 31.3358 31.3444L30.0273 31.2066Z" fill="#3D3D3D"/>
<path d="M35.7434 37.6133C35.4679 36.0977 34.9169 34.7888 34.1594 33.8933C33.8839 33.6177 33.6084 33.3422 33.2641 33.2044C32.9886 33.0666 32.7131 32.9977 32.3688 32.86C31.749 32.6533 30.9914 32.3777 30.4404 31.8955L30.9913 30.311C31.3356 30.5866 32.231 31.3444 32.8509 31.5511C33.1952 31.6888 33.5396 31.8266 33.8839 31.9644C34.366 32.1711 34.7792 32.5155 35.1924 32.9288C36.5009 34.3755 36.983 36.3044 37.1208 37.3377L35.7434 37.6133Z" fill="#3D3D3D"/>
<path d="M25.7573 37.6134L24.3799 37.4067C24.6554 35.6156 25.3441 34.0312 26.3082 32.9978C26.7214 32.5845 27.1347 32.24 27.6168 32.0334C27.9611 31.8267 28.3743 31.7578 28.8564 31.62C29.4762 31.4134 30.0961 31.2067 30.4404 30.9312L31.3357 31.9645C30.7848 32.4467 29.9583 32.7223 29.2696 32.9289C28.8564 33.0667 28.5121 33.1356 28.2366 33.2734C27.9611 33.4112 27.6168 33.6867 27.3413 33.9623C26.5837 34.7889 25.9639 36.0978 25.7573 37.6134Z" fill="#3D3D3D"/>
</svg>
