<?xml version="1.0" encoding="utf-8"?>
<!-- Generator: Adobe Illustrator 24.2.0, SVG Export Plug-In . SVG Version: 6.00 Build 0)  -->
<svg version="1.1" id="Pofile_Converter_Logo" xmlns="http://www.w3.org/2000/svg" xmlns:xlink="http://www.w3.org/1999/xlink"
	 x="0px" y="0px" viewBox="0 0 277.9 182.3" style="enable-background:new 0 0 277.9 182.3;" xml:space="preserve">
<style type="text/css">
	.st0{display:none;}
	.st1{display:inline;fill:#1E1E1E;}
	.st2{fill:none;stroke:#F25252;stroke-width:3.845;stroke-miterlimit:10;}
	.st3{fill:none;stroke:#B74242;stroke-width:2.8874;stroke-miterlimit:10;}
	.st4{fill:none;stroke:#F25252;stroke-width:2.8874;stroke-miterlimit:10;}
	.st5{fill:none;stroke:#F25252;stroke-width:3.4178;stroke-miterlimit:10;}
	.st6{display:inline;fill:none;stroke:#F1FFEB;stroke-width:7;stroke-miterlimit:10;}
</style>
<g id="BG" class="st0">
	<rect class="st1" width="277.9" height="182.3"/>
</g>
<g id="Gears">
	<g id="Left_Gear">
		<path class="st2" d="M121,30.2l2-17.1c-5.8-2.6-11.9-4.6-18.3-5.9l-8.4,15l-17-0.1L71,7.1c-6.6,1.3-12.9,3.4-18.8,6.1l2,17.1
			l-13.8,10l-15.6-7.2c-4.5,4.8-8.4,10.2-11.6,16l11.7,12.6l-5.3,16.2L2.8,81.2C2.4,84.6,2.2,88,2.2,91.5c0,3.2,0.2,6.3,0.6,9.4
			l16.9,3.3l5.2,16.2L13.2,133c3.3,5.8,7.2,11.2,11.7,16.1l15.6-7.2l13.8,10L52.2,169c6,2.7,12.2,4.8,18.8,6.1l8.3-15.1h17l8.4,15
			c6.6-1.3,12.9-3.4,18.8-6.2l-2.1-17.1"/>
		<path class="st3" d="M110.7,43.5c-18.1-8.8-40.4-6.8-56.9,6.9c-22.4,18.7-25.5,52-6.8,74.5c15.9,19.1,42.4,24.2,63.7,13.8"/>
		<path class="st4" d="M120.8,60.4C104.7,43,77.5,41,59,56.4c-19.1,15.9-21.7,44.3-5.8,63.4s44.3,21.7,63.4,5.8c1-0.6,2-1.5,2.9-2.4
			l1.3-1.4"/>
	</g>
	<g id="Right_Gear">
		<path class="st2" d="M275.1,101.3c0.4-3.4,0.6-7,0.6-10.5c0-3.4-0.2-6.8-0.6-10.2l-17.6-3.4L252,60.3l12.1-13.2
			c-3.4-6-7.5-11.6-12.2-16.7L235.7,38l-14.4-10.4l2.1-17.8c-6-2.7-12.4-4.8-19.1-6.2l-8.8,15.7l-17.8-0.1L169,3.6
			c-6.9,1.4-13.5,3.5-19.7,6.3l2.1,17.8L137,38.1l-16.3-7.5c-4.7,5-8.8,10.6-12.2,16.7l12.2,13.1l-5.5,16.9l-17.6,3.5
			c-0.4,3.5-0.6,7.1-0.6,10.8c0,3.3,0.2,6.6,0.6,9.9l17.6,3.5l5.5,16.9L108.5,135c3.4,6,7.5,11.7,12.2,16.8l16.3-7.6l14.4,10.4
			l-2.1,17.8c6.2,2.8,12.8,5,19.6,6.4l8.7-15.7h17.8l8.7,15.7c6.9-1.4,13.4-3.6,19.6-6.4l-2.2-17.8l14.4-10.5l16.3,7.5
			c4.7-5.1,8.7-10.7,12.1-16.7l-12.2-13.1l5.4-16.9L275.1,101.3z"/>
		<path class="st3" d="M228.8,55.9c-19.5-23.4-54.3-26.7-77.8-7.2c-23.4,19.5-26.7,54.3-7.1,77.8c19.5,23.4,54.3,26.6,77.7,7.2
			C245.1,114.2,248.3,79.3,228.8,55.9z"/>
		<path class="st4" d="M222.5,61.2c-16.6-20-46.2-22.7-66.2-6.1c-19.9,16.6-22.7,46.2-6.1,66.2c16.6,19.9,46.2,22.7,66.2,6.1
			C236.4,110.7,239.1,81.1,222.5,61.2z"/>
	</g>
</g>
<polygon id="Check" class="st5" points="153.5,98.1 160.2,90.1 177.1,104.3 207.4,69.7 215.2,76.5 178.2,118.8 "/>
<g id="Containment_Guide" class="st0">
	<path class="st6" d="M216.2,66.4c-13.7-16.5-38.2-18.8-54.7-5c-16.5,13.7-18.8,38.2-5,54.7c13.7,16.5,38.2,18.8,54.7,5
		S230,82.9,216.2,66.4z"/>
</g>
</svg>
