<svg width="38" height="38" viewBox="0 0 38 38" fill="none" xmlns="http://www.w3.org/2000/svg">
<path d="M29.779 36.4753C22.445 37.9634 15.1464 37.9634 7.81234 36.4753C4.44648 35.8022 1.78922 33.1803 1.11605 29.779C-0.372016 22.445 -0.372016 15.1464 1.11605 7.81231C1.78922 4.44645 4.41105 1.78922 7.81234 1.11605C15.1464 -0.372016 22.445 -0.372016 29.779 1.11605C33.1449 1.78922 35.8022 4.41102 36.4753 7.81231C37.9634 15.1464 37.9634 22.445 36.4753 29.779C35.8022 33.1449 33.1449 35.8022 29.779 36.4753Z" fill="url(#paint0_linear_101_14)"/>
<path d="M27.2279 10.3986C26.2358 9.40653 24.6061 9.40653 23.614 10.3986L10.3986 23.614C9.40653 24.6061 9.40653 26.2358 10.3986 27.2279C11.3906 28.2199 13.0204 28.2199 14.0125 27.2279L27.2279 14.0124C28.2199 13.0204 28.2199 11.3906 27.2279 10.3986Z" fill="url(#paint1_linear_101_14)"/>
<defs>
<linearGradient id="paint0_linear_101_14" x1="3.47077" y1="34.1354" x2="34.1359" y2="3.47026" gradientUnits="userSpaceOnUse">
<stop offset="0.00124008" stop-color="#A7B7DE"/>
<stop offset="0.5786" stop-color="#E3E5F4"/>
</linearGradient>
<linearGradient id="paint1_linear_101_14" x1="16.2452" y1="29.0625" x2="21.3613" y2="8.54292" gradientUnits="userSpaceOnUse">
<stop stop-color="#00BEED"/>
<stop offset="0.302" stop-color="#575BA8"/>
<stop offset="0.6354" stop-color="#EB4398"/>
<stop offset="0.9311" stop-color="#F8ED47"/>
</linearGradient>
</defs>
</svg>
